<?xml version="1.0" standalone="no"?>
<!DOCTYPE svg PUBLIC "-//W3C//DTD SVG 20010904//EN"
 "http://www.w3.org/TR/2001/REC-SVG-20010904/DTD/svg10.dtd">
<svg version="1.0" xmlns="http://www.w3.org/2000/svg"
 width="128.000000pt" height="128.000000pt" viewBox="0 0 128.000000 128.000000"
 preserveAspectRatio="xMidYMid meet">
<metadata>
Created by potrace 1.16, written by Peter Selinger 2001-2019
</metadata>
<g transform="translate(0.000000,128.000000) scale(0.100000,-0.100000)"
fill="#000000" stroke="none">
<path d="M565 1144 c-85 -66 -207 -116 -398 -165 -53 -13 -97 -56 -97 -93 0
-12 9 -71 20 -131 11 -60 20 -128 20 -152 l0 -43 80 0 80 0 0 53 c-1 30 -7 60
-15 71 -19 25 -19 31 0 50 17 17 37 12 74 -16 17 -13 41 -18 88 -18 63 0 94 9
121 37 17 17 27 17 46 -3 20 -19 20 -38 1 -54 -10 -8 -15 -31 -15 -66 l0 -54
70 0 70 0 0 53 c-1 30 -7 60 -15 71 -19 25 -19 31 1 50 14 15 19 14 58 -9 61
-36 155 -36 206 0 54 38 98 10 65 -41 -8 -13 -15 -45 -15 -74 l0 -50 80 0 80
0 0 43 c1 23 7 78 16 122 29 158 29 177 0 211 -17 21 -42 36 -73 44 -199 52
-314 99 -402 166 -57 44 -86 43 -146 -2z"/>
<path d="M8 349 c-5 -3 -8 -30 -6 -60 l3 -54 635 0 635 0 3 58 c2 31 -1 57 -5
57 -208 4 -1258 3 -1265 -1z"/>
</g>
</svg>
