<?xml version="1.0" standalone="no"?>
<!DOCTYPE svg PUBLIC "-//W3C//DTD SVG 20010904//EN"
 "http://www.w3.org/TR/2001/REC-SVG-20010904/DTD/svg10.dtd">
<svg version="1.0" xmlns="http://www.w3.org/2000/svg"
 width="128.000000pt" height="128.000000pt" viewBox="0 0 128.000000 128.000000"
 preserveAspectRatio="xMidYMid meet">
<metadata>
Created by potrace 1.16, written by Peter Selinger 2001-2019
</metadata>
<g transform="translate(0.000000,128.000000) scale(0.100000,-0.100000)"
fill="#000000" stroke="none">
<path d="M390 1131 c-71 -8 -113 -26 -147 -63 -24 -26 -94 -163 -112 -220 -9
-28 -16 -36 -29 -32 -14 5 -14 4 -3 -4 15 -11 8 -28 -54 -136 -32 -56 -32 -52
-19 -327 6 -124 13 -181 23 -192 10 -13 30 -17 81 -17 80 0 91 9 98 80 l5 50
407 0 407 0 5 -52 c7 -65 23 -78 104 -78 45 0 65 4 75 17 10 11 16 68 22 192
14 279 14 272 -18 327 -58 100 -76 143 -70 171 4 19 3 22 -3 10 -6 -15 -12 -7
-32 40 -32 79 -75 155 -103 181 -52 49 -87 55 -337 58 -129 1 -264 -1 -300 -5z
m68 -73 c7 -7 12 -38 12 -69 0 -39 5 -63 16 -73 32 -33 54 -9 54 59 0 54 12
75 42 75 24 0 38 -38 38 -101 0 -49 1 -50 28 -47 26 3 27 5 30 70 3 73 20 100
50 81 12 -7 18 -29 22 -79 5 -66 6 -69 30 -69 22 0 25 5 28 40 5 75 10 87 40
83 24 -3 27 -8 32 -52 9 -91 70 -87 70 5 0 40 3 49 21 54 30 10 42 -7 47 -70
5 -63 21 -78 52 -50 18 16 19 15 39 -30 12 -26 21 -53 21 -60 0 -16 -173 -25
-490 -25 -303 0 -490 9 -490 24 0 6 10 34 22 63 20 50 23 52 39 37 29 -26 49
-11 49 39 0 54 18 82 48 73 19 -6 22 -15 22 -55 0 -58 20 -91 47 -75 14 8 19
26 21 75 2 45 8 68 19 77 21 15 26 15 41 0z m-210 -358 c71 -33 93 -64 74
-105 -10 -21 -18 -25 -54 -24 -70 1 -151 31 -166 61 -21 44 15 95 68 97 8 1
43 -12 78 -29z m895 19 c36 -16 51 -54 35 -87 -15 -30 -96 -60 -166 -61 -36
-1 -44 3 -54 24 -19 41 3 72 74 105 70 33 77 35 111 19z"/>
</g>
</svg>
